# 
# Wavefront OBJ file
# Converted by the DEEP Exploration 3.5.10.1242
# Right Hemisphere, LTD
# http://www.righthemisphere.com/
# 
mtllib arrow03.mtl
# object Mesh 
g Mesh_
v 0.011821 -9.16437 -0.971046
v -4.79727 -2.6679 -0.971046
v -1.05509 -2.60861 -0.971046
v -4.86458 -2.60861 -0.971046
v -1.05509 9.16437 -0.971046
v 1.16714 9.16437 -0.971046
v 1.16714 -2.67113 -0.971046
v 4.86458 -2.67113 -0.971046
v -1.05509 -2.60861 0.971046
v -4.79727 -2.6679 0.971046
v 0.011821 -9.16437 0.971046
v -4.86458 -2.60861 0.971046
v 1.16714 9.16437 0.971046
v -1.05509 9.16437 0.971046
v 4.86458 -2.67113 0.971046
v 1.16714 -2.67113 0.971046
# 16 verticies
vt 0 0
# 1 texture verticies
vn 0 0 -1
vn 0 0 1
vn 0.801015 -0.598644 0
vn -0.803741 -0.594979 0
vn -0.803742 -0.594979 0
vn -0.660977 -0.750407 0
vn 0 1 0
vn -1 0 0
vn 1 0 0
# 9 normals
usemtl mat__ACI__7
f  1/1/1 2/1/1 3/1/1
f  4/1/1 3/1/1 2/1/1
f  3/1/1 5/1/1 6/1/1 7/1/1
f  7/1/1 8/1/1 1/1/1
f  3/1/1 7/1/1 1/1/1
f  9/1/2 10/1/2 11/1/2
f  10/1/2 9/1/2 12/1/2
f  13/1/2 14/1/2 9/1/2 16/1/2
f  11/1/2 15/1/2 16/1/2
f  11/1/2 16/1/2 9/1/2
f  15/1/3 11/1/3 1/1/3 8/1/3
f  11/1/4 10/1/4 2/1/5 1/1/4
f  10/1/6 12/1/6 4/1/6 2/1/6
f  12/1/7 9/1/7 3/1/7 4/1/7
f  9/1/8 14/1/8 5/1/8 3/1/8
f  14/1/7 13/1/7 6/1/7 5/1/7
f  13/1/9 16/1/9 7/1/9 6/1/9
f  16/1/7 15/1/7 8/1/7 7/1/7
